<?xml version="1.0" encoding="UTF-8"?>
<svg id="Layer_1" data-name="Layer 1" xmlns="http://www.w3.org/2000/svg" version="1.1" viewBox="0 0 1229.57 479.32">
  <defs>
    <style>
      .cls-1 {
        stroke: #000;
        stroke-miterlimit: 10;
      }

      .cls-1, .cls-2 {
        fill: #fff;
      }

      .cls-2 {
        stroke-width: 0px;
      }
    </style>
  </defs>
  <g>
    <path class="cls-2" d="M64.44,462.56H22.99l-6.79,14.95H0l35.56-79.28h16.31l35.56,79.28h-16.31l-6.68-14.95ZM43.71,414.88l-14.72,33.75h29.45l-14.72-33.75Z"/>
    <path class="cls-2" d="M110.31,398.23v65.46h40.77v13.82h-55.72v-79.28h14.95Z"/>
    <path class="cls-2" d="M220.73,477.51h-59.34v-79.28h59.34v14.5h-44.51v18.23h42.92v13.93h-42.92v17.89h44.51v14.72Z"/>
    <path class="cls-2" d="M300,443.65c0,20.5-13.02,35.45-34.88,35.45-20.27,0-34.77-12.12-34.77-34.54h14.72c0,13.59,6.57,20.5,20.04,20.5s19.93-9.4,19.93-21.4v-31.48h-23.9v-13.93h38.84v45.41Z"/>
    <path class="cls-2" d="M370.33,462.56h-41.45l-6.8,14.95h-16.19l35.56-79.28h16.31l35.56,79.28h-16.31l-6.68-14.95ZM349.61,414.88l-14.72,33.75h29.45l-14.72-33.75Z"/>
    <path class="cls-2" d="M452.21,398.12h14.95v79.39h-9.29v.11l-41.68-53.57v53.45h-14.95v-79.28h12.12l38.84,49.15v-49.26Z"/>
    <path class="cls-2" d="M550.63,437.19c.34,20.05-11.89,40.32-39.64,40.32h-31.14v-79.28h31.14c27.18,0,39.3,19.37,39.64,38.96ZM494.68,463.13h16.31c18.01,0,25.14-13.14,24.8-26.05-.34-12.34-7.59-24.69-24.8-24.69h-16.31v50.74Z"/>
    <path class="cls-2" d="M630.81,477.51h-17.78l-23.1-26.5h-14.38v26.5h-14.95v-79.39c12.57,0,25.14.11,37.71.11,18.69.11,28.54,12.57,28.54,26.27,0,10.87-4.98,21.86-20.04,24.92l24.01,27.07v1.02ZM575.54,412.16v25.37h22.76c9.51,0,13.59-6.34,13.59-12.68s-4.19-12.68-13.59-12.68h-22.76Z"/>
    <path class="cls-2" d="M714.84,438.32c-.23,20.5-12.8,41-40.66,41s-40.77-20.05-40.77-40.88,13.36-41.79,40.77-41.79,40.88,20.95,40.66,41.68ZM648.13,438.66c.34,13.02,7.36,26.95,26.05,26.95s25.71-14.04,25.93-27.07c.23-13.36-7.25-28.31-25.93-28.31s-26.39,15.06-26.05,28.43Z"/>
    <path class="cls-2" d="M813.14,421.22c0,6.12-2.94,12-10.31,15.29,9.29,2.83,12.68,12.68,12.68,17.67,0,17.67-13.25,23.33-29.67,23.33h-37.6v-79.28h37.6c15.63,0,27.29,7.02,27.29,22.99ZM762.97,430.06h22.88c9.4,0,12.46-3.96,12.46-8.49,0-3.62-2.94-9.74-12.46-9.74h-22.88v18.23ZM762.97,463.58h22.88c6.12,0,14.84-2.04,14.84-9.51s-8.72-10.87-14.84-10.87h-22.88v20.38Z"/>
    <path class="cls-2" d="M905.21,438.32c-.23,20.5-12.8,41-40.66,41s-40.77-20.05-40.77-40.88,13.36-41.79,40.77-41.79,40.88,20.95,40.66,41.68ZM838.51,438.66c.34,13.02,7.36,26.95,26.05,26.95s25.71-14.04,25.93-27.07c.23-13.36-7.25-28.31-25.93-28.31s-26.39,15.06-26.05,28.43Z"/>
    <path class="cls-2" d="M931.15,398.23v65.46h40.77v13.82h-55.72v-79.28h14.95Z"/>
    <path class="cls-2" d="M1038.74,462.56h-41.45l-6.79,14.95h-16.19l35.56-79.28h16.31l35.56,79.28h-16.31l-6.68-14.95ZM1018.01,414.88l-14.72,33.75h29.45l-14.72-33.75Z"/>
    <path class="cls-2" d="M1140.66,437.19c.34,20.05-11.89,40.32-39.64,40.32h-31.14v-79.28h31.14c27.18,0,39.3,19.37,39.64,38.96ZM1084.72,463.13h16.31c18.01,0,25.14-13.14,24.8-26.05-.34-12.34-7.59-24.69-24.8-24.69h-16.31v50.74Z"/>
    <path class="cls-2" d="M1229.56,438.32c-.23,20.5-12.8,41-40.66,41s-40.77-20.05-40.77-40.88,13.36-41.79,40.77-41.79,40.88,20.95,40.66,41.68ZM1162.86,438.66c.34,13.02,7.36,26.95,26.05,26.95s25.71-14.04,25.93-27.07c.23-13.36-7.25-28.31-25.93-28.31s-26.39,15.06-26.05,28.43Z"/>
  </g>
  <g>
    <polygon class="cls-2" points="617.5 238.26 617.19 238.43 617.19 238.09 617.5 238.26"/>
    <polygon class="cls-2" points="617.81 86 617.81 87.01 617.5 86.51 617.81 86"/>
    <path class="cls-2" d="M670.99,0h-106.98l-168.37,271.15,76.36,50.29,29.52,19.45,115.98-62.37,115.98,62.37,29.52-19.45,76.36-50.29L670.99,0ZM742.51,295.68l-8.46,6.15-116.23-63.4-.31-.16-.31.16-116.23,63.4-8.46-6.15-2.65-1.94,2.65-4.31,77.08-125.12.07-.12,47.54-77.18v-1.01l.31.51.31-.51v1.01l47.54,77.18.07.12,77.08,125.12,2.65,4.31-2.65,1.94Z"/>
    <polygon class="cls-2" points="617.5 86.51 617.19 87.01 617.19 86 617.5 86.51"/>
    <polygon class="cls-2" points="617.81 238.09 617.81 238.43 617.5 238.26 617.81 238.09"/>
  </g>
  <g>
    <polygon class="cls-2" points="617.5 86.51 617.19 87.01 617.19 86 617.5 86.51"/>
    <polygon class="cls-2" points="617.81 238.09 617.81 238.43 617.5 238.26 617.81 238.09"/>
    <polygon class="cls-1" points="617.5 238.26 617.19 238.43 617.19 238.09 617.5 238.26"/>
    <polygon class="cls-1" points="617.81 86 617.81 87.01 617.5 86.51 617.81 86"/>
  </g>
</svg>